<mxfile host="65bd71144e">
    <diagram id="Ht1M8jgEwFfnCIfOTk4-" name="Page-1">
        <mxGraphModel dx="2684" dy="2314" grid="1" gridSize="10" guides="1" tooltips="1" connect="1" arrows="1" fold="1" page="1" pageScale="1" pageWidth="1169" pageHeight="827" math="0" shadow="0">
            <root>
                <mxCell id="0"/>
                <mxCell id="1" parent="0"/>
                <mxCell id="GLOCoCgIDdBbIThNCiWB-1" value="" style="sketch=0;outlineConnect=0;fontColor=#232F3E;gradientColor=none;fillColor=#232F3D;strokeColor=none;dashed=0;verticalLabelPosition=bottom;verticalAlign=top;align=center;html=1;fontSize=12;fontStyle=0;aspect=fixed;pointerEvents=1;shape=mxgraph.aws4.authenticated_user;" parent="1" vertex="1">
                    <mxGeometry x="-280" y="-812" width="78" height="78" as="geometry"/>
                </mxCell>
                <mxCell id="GLOCoCgIDdBbIThNCiWB-42" style="edgeStyle=orthogonalEdgeStyle;rounded=0;orthogonalLoop=1;jettySize=auto;html=1;" parent="1" source="GLOCoCgIDdBbIThNCiWB-2" target="GLOCoCgIDdBbIThNCiWB-40" edge="1">
                    <mxGeometry relative="1" as="geometry"/>
                </mxCell>
                <mxCell id="GLOCoCgIDdBbIThNCiWB-2" value="" style="sketch=0;outlineConnect=0;fontColor=#232F3E;gradientColor=none;fillColor=#232F3D;strokeColor=none;dashed=0;verticalLabelPosition=bottom;verticalAlign=top;align=center;html=1;fontSize=12;fontStyle=0;aspect=fixed;pointerEvents=1;shape=mxgraph.aws4.user;" parent="1" vertex="1">
                    <mxGeometry x="571" y="-351" width="78" height="78" as="geometry"/>
                </mxCell>
                <mxCell id="GLOCoCgIDdBbIThNCiWB-3" value="Content Flow to the Platform" style="text;html=1;align=center;verticalAlign=middle;whiteSpace=wrap;rounded=0;" parent="1" vertex="1">
                    <mxGeometry x="-322" y="-857" width="162" height="30" as="geometry"/>
                </mxCell>
                <mxCell id="GLOCoCgIDdBbIThNCiWB-7" value="Contributor" style="text;html=1;align=center;verticalAlign=middle;whiteSpace=wrap;rounded=0;" parent="1" vertex="1">
                    <mxGeometry x="-271" y="-730" width="60" height="30" as="geometry"/>
                </mxCell>
                <mxCell id="GLOCoCgIDdBbIThNCiWB-8" value="" style="edgeStyle=orthogonalEdgeStyle;html=1;endArrow=block;elbow=vertical;startArrow=none;endFill=1;strokeColor=#000000;rounded=0;entryX=0;entryY=0.5;entryDx=0;entryDy=0;" parent="1" target="GLOCoCgIDdBbIThNCiWB-9" edge="1">
                    <mxGeometry width="100" relative="1" as="geometry">
                        <mxPoint x="-190" y="-764.71" as="sourcePoint"/>
                        <mxPoint x="-110" y="-764.71" as="targetPoint"/>
                    </mxGeometry>
                </mxCell>
                <mxCell id="GLOCoCgIDdBbIThNCiWB-9" value="Paletta" style="rounded=1;whiteSpace=wrap;html=1;" parent="1" vertex="1">
                    <mxGeometry x="-120" y="-794" width="100" height="60" as="geometry"/>
                </mxCell>
                <mxCell id="GLOCoCgIDdBbIThNCiWB-10" value="" style="edgeStyle=orthogonalEdgeStyle;html=1;endArrow=block;elbow=vertical;startArrow=none;endFill=1;strokeColor=#000000;rounded=0;" parent="1" target="GLOCoCgIDdBbIThNCiWB-11" edge="1">
                    <mxGeometry width="100" relative="1" as="geometry">
                        <mxPoint x="-20" y="-764.5000000000001" as="sourcePoint"/>
                        <mxPoint x="40" y="-763.5" as="targetPoint"/>
                        <Array as="points">
                            <mxPoint x="-20" y="-763"/>
                        </Array>
                    </mxGeometry>
                </mxCell>
                <mxCell id="GLOCoCgIDdBbIThNCiWB-14" value="" style="edgeStyle=orthogonalEdgeStyle;html=1;endArrow=block;elbow=vertical;startArrow=none;endFill=1;strokeColor=#000000;rounded=0;exitX=1;exitY=0.5;exitDx=0;exitDy=0;exitPerimeter=0;entryX=0;entryY=0.5;entryDx=0;entryDy=0;entryPerimeter=0;" parent="1" source="GLOCoCgIDdBbIThNCiWB-11" target="GLOCoCgIDdBbIThNCiWB-13" edge="1">
                    <mxGeometry width="100" relative="1" as="geometry">
                        <mxPoint x="300" y="-764.83" as="sourcePoint"/>
                        <mxPoint x="400" y="-764.83" as="targetPoint"/>
                        <Array as="points">
                            <mxPoint x="100" y="-763"/>
                            <mxPoint x="100" y="-764"/>
                        </Array>
                    </mxGeometry>
                </mxCell>
                <mxCell id="GLOCoCgIDdBbIThNCiWB-16" value="" style="group" parent="1" vertex="1" connectable="0">
                    <mxGeometry x="40" y="-799" width="69" height="111" as="geometry"/>
                </mxCell>
                <mxCell id="GLOCoCgIDdBbIThNCiWB-11" value="" style="outlineConnect=0;dashed=0;verticalLabelPosition=bottom;verticalAlign=top;align=center;html=1;shape=mxgraph.aws3.classic_load_balancer;fillColor=#F58534;gradientColor=none;" parent="GLOCoCgIDdBbIThNCiWB-16" vertex="1">
                    <mxGeometry width="69" height="72" as="geometry"/>
                </mxCell>
                <mxCell id="GLOCoCgIDdBbIThNCiWB-12" value="Load Balancer" style="text;html=1;align=center;verticalAlign=middle;whiteSpace=wrap;rounded=0;" parent="GLOCoCgIDdBbIThNCiWB-16" vertex="1">
                    <mxGeometry x="9" y="81" width="60" height="30" as="geometry"/>
                </mxCell>
                <mxCell id="GLOCoCgIDdBbIThNCiWB-19" value="" style="group" parent="1" vertex="1" connectable="0">
                    <mxGeometry x="160" y="-799" width="120" height="111" as="geometry"/>
                </mxCell>
                <mxCell id="GLOCoCgIDdBbIThNCiWB-13" value="Upload" style="html=1;whiteSpace=wrap;strokeColor=none;fillColor=#0079D6;labelPosition=center;verticalLabelPosition=middle;verticalAlign=top;align=center;fontSize=12;outlineConnect=0;spacingTop=-6;fontColor=#FFFFFF;sketch=0;shape=mxgraph.sitemap.upload;" parent="GLOCoCgIDdBbIThNCiWB-19" vertex="1">
                    <mxGeometry width="120" height="70" as="geometry"/>
                </mxCell>
                <mxCell id="GLOCoCgIDdBbIThNCiWB-17" value="Video Uploading" style="text;html=1;align=center;verticalAlign=middle;whiteSpace=wrap;rounded=0;" parent="GLOCoCgIDdBbIThNCiWB-19" vertex="1">
                    <mxGeometry x="30" y="81" width="60" height="30" as="geometry"/>
                </mxCell>
                <mxCell id="GLOCoCgIDdBbIThNCiWB-20" value="Amazon S3" style="sketch=0;outlineConnect=0;fontColor=#232F3E;gradientColor=none;strokeColor=#ffffff;fillColor=#232F3E;dashed=0;verticalLabelPosition=middle;verticalAlign=bottom;align=center;html=1;whiteSpace=wrap;fontSize=10;fontStyle=1;spacing=3;shape=mxgraph.aws4.productIcon;prIcon=mxgraph.aws4.s3;" parent="1" vertex="1">
                    <mxGeometry x="180" y="-620" width="80" height="100" as="geometry"/>
                </mxCell>
                <mxCell id="GLOCoCgIDdBbIThNCiWB-21" style="edgeStyle=orthogonalEdgeStyle;rounded=0;orthogonalLoop=1;jettySize=auto;html=1;exitX=0.5;exitY=1;exitDx=0;exitDy=0;" parent="1" source="GLOCoCgIDdBbIThNCiWB-17" target="GLOCoCgIDdBbIThNCiWB-20" edge="1">
                    <mxGeometry relative="1" as="geometry"/>
                </mxCell>
                <mxCell id="GLOCoCgIDdBbIThNCiWB-32" value="" style="endArrow=classic;startArrow=classic;html=1;rounded=0;exitX=0.5;exitY=0;exitDx=0;exitDy=0;" parent="1" source="GLOCoCgIDdBbIThNCiWB-30" target="GLOCoCgIDdBbIThNCiWB-20" edge="1">
                    <mxGeometry width="50" height="50" relative="1" as="geometry">
                        <mxPoint x="120" y="-440" as="sourcePoint"/>
                        <mxPoint x="170" y="-490" as="targetPoint"/>
                    </mxGeometry>
                </mxCell>
                <mxCell id="GLOCoCgIDdBbIThNCiWB-35" value="Customer" style="text;html=1;align=center;verticalAlign=middle;whiteSpace=wrap;rounded=0;" parent="1" vertex="1">
                    <mxGeometry x="580" y="-261" width="60" height="30" as="geometry"/>
                </mxCell>
                <mxCell id="GLOCoCgIDdBbIThNCiWB-36" value="Content Consumption&amp;nbsp;&lt;div&gt;Start from here&lt;/div&gt;" style="text;html=1;align=center;verticalAlign=middle;whiteSpace=wrap;rounded=0;" parent="1" vertex="1">
                    <mxGeometry x="529" y="-391" width="162" height="30" as="geometry"/>
                </mxCell>
                <mxCell id="GLOCoCgIDdBbIThNCiWB-49" style="edgeStyle=orthogonalEdgeStyle;rounded=0;orthogonalLoop=1;jettySize=auto;html=1;" parent="1" source="GLOCoCgIDdBbIThNCiWB-40" target="GLOCoCgIDdBbIThNCiWB-52" edge="1">
                    <mxGeometry relative="1" as="geometry">
                        <mxPoint x="300" y="-311" as="targetPoint"/>
                    </mxGeometry>
                </mxCell>
                <mxCell id="GLOCoCgIDdBbIThNCiWB-57" style="edgeStyle=orthogonalEdgeStyle;rounded=0;orthogonalLoop=1;jettySize=auto;html=1;entryX=0.5;entryY=1;entryDx=0;entryDy=0;" parent="1" source="GLOCoCgIDdBbIThNCiWB-40" target="GLOCoCgIDdBbIThNCiWB-55" edge="1">
                    <mxGeometry relative="1" as="geometry"/>
                </mxCell>
                <mxCell id="GLOCoCgIDdBbIThNCiWB-40" value="Paletta" style="rounded=1;whiteSpace=wrap;html=1;" parent="1" vertex="1">
                    <mxGeometry x="409" y="-341" width="100" height="60" as="geometry"/>
                </mxCell>
                <mxCell id="GLOCoCgIDdBbIThNCiWB-25" value="Amazon Kinesis Video Streams" style="sketch=0;outlineConnect=0;fontColor=#232F3E;gradientColor=none;strokeColor=#ffffff;fillColor=#232F3E;dashed=0;verticalLabelPosition=middle;verticalAlign=bottom;align=center;html=1;whiteSpace=wrap;fontSize=10;fontStyle=1;spacing=3;shape=mxgraph.aws4.productIcon;prIcon=mxgraph.aws4.kinesis_video_streams;" parent="1" vertex="1">
                    <mxGeometry x="-20" y="-620" width="80" height="120" as="geometry"/>
                </mxCell>
                <mxCell id="GLOCoCgIDdBbIThNCiWB-30" value="Video Processing&amp;nbsp;&lt;div&gt;Service&lt;/div&gt;" style="rounded=1;whiteSpace=wrap;html=1;" parent="1" vertex="1">
                    <mxGeometry x="60" y="-473" width="120" height="60" as="geometry"/>
                </mxCell>
                <mxCell id="GLOCoCgIDdBbIThNCiWB-51" value="" style="endArrow=classic;startArrow=classic;html=1;rounded=0;exitX=0.5;exitY=1;exitDx=0;exitDy=0;" parent="1" source="GLOCoCgIDdBbIThNCiWB-30" target="GLOCoCgIDdBbIThNCiWB-52" edge="1">
                    <mxGeometry width="50" height="50" relative="1" as="geometry">
                        <mxPoint x="130" y="-463" as="sourcePoint"/>
                        <mxPoint x="210" y="-360" as="targetPoint"/>
                    </mxGeometry>
                </mxCell>
                <mxCell id="GLOCoCgIDdBbIThNCiWB-52" value="Amazon Cloudfront" style="sketch=0;outlineConnect=0;fontColor=#232F3E;gradientColor=none;strokeColor=#ffffff;fillColor=#232F3E;dashed=0;verticalLabelPosition=middle;verticalAlign=bottom;align=center;html=1;whiteSpace=wrap;fontSize=10;fontStyle=1;spacing=3;shape=mxgraph.aws4.productIcon;prIcon=mxgraph.aws4.cloudfront;" parent="1" vertex="1">
                    <mxGeometry x="210" y="-366" width="80" height="110" as="geometry"/>
                </mxCell>
                <mxCell id="GLOCoCgIDdBbIThNCiWB-53" value="" style="group" parent="1" vertex="1" connectable="0">
                    <mxGeometry x="420" y="-498.5" width="69" height="111" as="geometry"/>
                </mxCell>
                <mxCell id="GLOCoCgIDdBbIThNCiWB-54" value="" style="outlineConnect=0;dashed=0;verticalLabelPosition=bottom;verticalAlign=top;align=center;html=1;shape=mxgraph.aws3.classic_load_balancer;fillColor=#F58534;gradientColor=none;" parent="GLOCoCgIDdBbIThNCiWB-53" vertex="1">
                    <mxGeometry width="69" height="72" as="geometry"/>
                </mxCell>
                <mxCell id="GLOCoCgIDdBbIThNCiWB-55" value="Load Balancer" style="text;html=1;align=center;verticalAlign=middle;whiteSpace=wrap;rounded=0;" parent="GLOCoCgIDdBbIThNCiWB-53" vertex="1">
                    <mxGeometry x="9" y="81" width="60" height="30" as="geometry"/>
                </mxCell>
            </root>
        </mxGraphModel>
    </diagram>
</mxfile>